<svg xmlns="http://www.w3.org/2000/svg" viewBox="0 0 64 64" role="img" aria-labelledby="title description">
  <title id="title">Towel</title>
  <desc id="description">A folded coral towel with network-shaped creases</desc>
  <defs>
    <linearGradient id="cloth" x1="10" y1="6" x2="52" y2="58" gradientUnits="userSpaceOnUse">
      <stop stop-color="#ff9b83"/>
      <stop offset="1" stop-color="#ff654f"/>
    </linearGradient>
  </defs>
  <rect width="64" height="64" rx="15" fill="#1b1b18"/>
  <path d="M14 10h29l8 9-7 35H12l7-35-5-9Z" fill="url(#cloth)"/>
  <path d="m43 10 8 9-13 3 5-12Z" fill="#ffd0c3" opacity=".82"/>
  <path d="M20 27c-3 1-5 3-5 6s2 5 5 6M39 27c3 1 5 3 5 6s-2 5-5 6" fill="none" stroke="#251713" stroke-width="2.4" stroke-linecap="round"/>
  <path d="m24 25 7 8-6 8m15-16-9 8 8 8" fill="none" stroke="#51271f" stroke-width="1.4" stroke-linecap="round" stroke-linejoin="round" opacity=".7"/>
  <circle cx="24" cy="25" r="2" fill="#f8e8dc"/>
  <circle cx="31" cy="33" r="2" fill="#f8e8dc"/>
  <circle cx="25" cy="41" r="2" fill="#f8e8dc"/>
  <circle cx="40" cy="25" r="2" fill="#f8e8dc"/>
  <circle cx="39" cy="41" r="2" fill="#f8e8dc"/>
</svg>
